<svg width="1262" height="554" viewBox="0 0 1262 554" fill="none" xmlns="http://www.w3.org/2000/svg">
<mask id="path-1-inside-1_174_8327" fill="white">
<path d="M1262 531C1262 543.703 1251.7 554 1239 554L23.5588 554C2.27942 554 -7.58874 527.588 8.4773 513.635L593.4 5.63489C597.584 2.00104 602.94 6.44534e-05 608.482 6.49379e-05L1239 0.00012006C1251.7 0.00012117 1262 10.2976 1262 23.0001L1262 531Z"/>
</mask>
<path d="M1239 554.5C1239 554.167 1239 553.833 1239 553.5C1184.45 550.188 1129.89 547.046 1075.34 544.073C724.743 524.969 374.151 512.871 23.5588 507.777C44.1256 506.846 55.5417 535.34 39.2799 549.102C122.322 478.768 204.922 407.925 287.079 336.572C399.896 238.591 511.955 139.737 623.254 40.0091C619.148 43.4811 613.795 45.3714 608.482 45.269C818.655 41.8941 1028.83 36.2299 1239 28.2762C1236.12 27.8162 1234.59 25.0618 1235.11 23.0001C1240.07 149.822 1245.86 276.643 1252.49 403.465C1254.71 445.977 1257.02 488.488 1259.43 531C1260.44 541.823 1251.04 553.037 1239 553.5C1239 553.833 1239 554.167 1239 554.5C1251.46 555.559 1264.16 544.679 1264.57 531C1266.98 488.488 1269.29 445.977 1271.51 403.465C1278.14 276.643 1283.93 149.822 1288.89 23.0001C1290.01 -3.56396 1266.38 -28.4117 1239 -28.2759C1028.83 -36.2296 818.655 -41.8939 608.482 -45.2688C592.195 -45.4012 575.919 -39.4299 563.547 -28.7393C449.212 67.4938 335.636 164.601 222.819 262.581C140.662 333.934 58.9469 405.796 -22.3252 478.168C-70.8308 516.506 -37.4675 603.741 23.5588 600.223C374.151 595.129 724.743 583.031 1075.34 563.927C1129.89 560.954 1184.45 557.812 1239 554.5ZM1239 553.5L1239 554.5L1239 553.5Z" fill="#F7CB15" mask="url(#path-1-inside-1_174_8327)"/>
</svg>
